<svg width="35" height="35" viewBox="0 0 35 35" version="1.1" xmlns="http://www.w3.org/2000/svg" xmlns:xlink="http://www.w3.org/1999/xlink">
<title>rounded-add-button</title>
<desc>Created using Figma</desc>
<g id="Canvas" transform="translate(-894 -2567)">
<g id="rounded-add-button">
<g id="Group">
<g id="add circle outline">
<g id="Vector">
<use xlink:href="#path0_fill" transform="translate(894 2567)" fill="#5ED9FF"/>
</g>
</g>
</g>
</g>
</g>
<defs>
<path id="path0_fill" d="M 19.25 8.75L 15.75 8.75L 15.75 15.75L 8.75 15.75L 8.75 19.25L 15.75 19.25L 15.75 26.25L 19.25 26.25L 19.25 19.25L 26.25 19.25L 26.25 15.75L 19.25 15.75L 19.25 8.75ZM 17.5 0C 7.875 0 0 7.875 0 17.5C 0 27.125 7.875 35 17.5 35C 27.125 35 35 27.125 35 17.5C 35 7.875 27.125 0 17.5 0ZM 17.5 31.5C 9.8 31.5 3.5 25.2 3.5 17.5C 3.5 9.8 9.8 3.5 17.5 3.5C 25.2 3.5 31.5 9.8 31.5 17.5C 31.5 25.2 25.2 31.5 17.5 31.5Z"/>
</defs>
</svg>
